PathFileType	4	(X/Y/Z)	C:/Users/opensim2020/Desktop/walking_exp_matlab/subject06_walking18_straight_01.trc	
DataRate	CameraRate	NumFrames	NumMarkers	Units	OrigDataRate	OrigDataStartFrame	OrigNumFrames	
100.00	100.00	9	47	mm	100.00	1067	396	
Frame#	Time	LFHD			RFHD			LBHD			RBHD			C7			T10			CLAV			STRN			RBAK			LSHO			LUPA			LELB			LFRM			LWRA			LWRB			LFIN			RSHO			RUPA			RELB			RFRM			RWRA			RWRB			RFIN			LASI			RASI			LPSI			RPSI			LTHI			LKNE			LTIB			LANK			LHEE			LTOE			RTHI			RKNE			RTIB			RANK			RHEE			RTOE			*39			*40			*41			*42			*43			*44			*45			*46			
		X1	Y1	Z1	X2	Y2	Z2	X3	Y3	Z3	X4	Y4	Z4	X5	Y5	Z5	X6	Y6	Z6	X7	Y7	Z7	X8	Y8	Z8	X9	Y9	Z9	X10	Y10	Z10	X11	Y11	Z11	X12	Y12	Z12	X13	Y13	Z13	X14	Y14	Z14	X15	Y15	Z15	X16	Y16	Z16	X17	Y17	Z17	X18	Y18	Z18	X19	Y19	Z19	X20	Y20	Z20	X21	Y21	Z21	X22	Y22	Z22	X23	Y23	Z23	X24	Y24	Z24	X25	Y25	Z25	X26	Y26	Z26	X27	Y27	Z27	X28	Y28	Z28	X29	Y29	Z29	X30	Y30	Z30	X31	Y31	Z31	X32	Y32	Z32	X33	Y33	Z33	X34	Y34	Z34	X35	Y35	Z35	X36	Y36	Z36	X37	Y37	Z37	X38	Y38	Z38	X39	Y39	Z39	X40	Y40	Z40	X41	Y41	Z41	X42	Y42	Z42	X43	Y43	Z43	X44	Y44	Z44	X45	Y45	Z45	X46	Y46	Z46	X47	Y47	Z47	

50	0.490	1342.97083	-575.17108	1664.71204	1474.21680	-566.86328	1657.12183	1351.72253	-705.28461	1603.61279	1480.96863	-695.57202	1601.10986	1410.63672	-698.23053	1453.01245	1426.30957	-737.86603	1124.51001	1409.08093	-588.24768	1375.32056	1408.05493	-551.79919	1199.04016	1499.05212	-770.27979	1286.91626	1248.01306	-648.14508	1404.06262	1180.60339	-681.46875	1204.45325	1175.20813	-706.11420	1093.94141	1166.52307	-704.02228	941.57764	1225.76709	-671.29095	823.96735	1177.45044	-724.53345	824.61151	1191.04077	-697.56104	738.50232	1570.11890	-625.37842	1412.98975	1661.81580	-653.94904	1214.90344	1672.60181	-641.66687	1093.31458	1690.97363	-628.67871	973.80078	1659.00928	-579.36475	830.29938	1703.46216	-628.74670	836.06012	1704.29248	-596.08484	757.61792	1324.40356	-548.29694	968.71118	1543.80542	-563.62946	968.23096	1342.87903	-709.29492	991.21216	1511.25940	-714.71674	992.11975	1262.17493	-585.73535	655.31982	1287.98401	-574.43024	492.37317	1303.66821	-577.43811	236.46408	1352.53809	-552.69019	68.34562	1400.51965	-586.85266	54.18561	1349.30530	-402.64523	42.16968	1589.61182	-649.41205	630.77698	1572.96631	-658.10046	503.31900	1558.88892	-823.10352	289.26605	1509.44312	-928.00586	135.50496	1463.72217	-971.87970	134.33072	1501.82971	-809.61139	34.46281	1407.05872	-673.79138	1699.44617																					 
51	0.500	1341.31323	-569.52454	1665.24084	1472.57141	-561.46289	1657.83044	1349.88293	-699.68829	1604.10901	1479.12341	-690.17157	1601.76965	1408.84485	-692.47620	1453.35596	1424.80969	-731.79883	1125.12134	1407.74512	-582.39142	1376.01196	1406.99292	-545.56885	1199.88831	1497.37073	-764.57410	1287.54602	1246.67358	-641.81274	1404.74194	1178.53015	-673.72333	1205.05908	1172.76294	-697.80426	1094.43665	1164.02026	-694.86896	942.20441	1224.13013	-662.41132	824.64545	1174.72595	-714.66254	824.94562	1189.01343	-687.85132	738.95819	1568.55225	-620.11554	1413.94641	1660.24622	-649.14307	1215.98657	1671.15405	-636.95142	1094.32849	1689.72668	-624.27222	974.84454	1658.03650	-575.19849	831.15479	1702.34436	-624.71588	837.08167	1703.30042	-592.29211	758.51385	1323.46484	-541.69897	969.42639	1543.09875	-556.96246	969.34521	1341.79431	-702.60052	991.79218	1510.02039	-708.41455	992.71429	1261.24976	-580.85004	655.68286	1286.85767	-571.30396	492.54099	1302.25171	-575.57086	236.46371	1352.09875	-552.45166	68.17870	1400.07410	-587.33960	54.45811	1349.34607	-402.65103	42.12214	1590.53699	-641.63275	631.37860	1575.30823	-648.73059	503.80341	1559.62976	-816.39026	292.36310	1509.50208	-923.40051	140.18236	1463.35535	-966.45599	140.51747	1501.80481	-809.26447	34.51325	1405.11902	-668.25342	1700.04492																					 
52	0.510	1339.61499	-563.91870	1665.63977	1470.90820	-556.03784	1658.38062	1348.01892	-694.03857	1604.58667	1477.28479	-684.78503	1602.41614	1407.15100	-686.93445	1453.67993	1423.29749	-725.72614	1125.55505	1406.37927	-576.60004	1376.58948	1405.84094	-539.40155	1200.62024	1495.71899	-758.91925	1288.12842	1245.18701	-635.44446	1405.34692	1176.35510	-666.02484	1205.63708	1170.29944	-689.40332	1094.86938	1161.46704	-685.58612	942.73291	1222.31396	-653.19409	825.38940	1171.95557	-704.96057	825.35980	1186.94324	-677.93317	739.39026	1566.96289	-614.87354	1414.80872	1658.92688	-644.01727	1217.02954	1669.76917	-632.20508	1095.31116	1688.48926	-619.84747	975.80682	1657.07056	-571.09332	831.91864	1701.25354	-620.73120	838.11401	1702.30017	-588.42834	759.30103	1322.55347	-535.23834	969.91321	1542.13293	-550.92120	970.23322	1340.70325	-696.32391	992.37012	1508.70569	-702.23242	993.19464	1260.27087	-576.25153	656.08093	1285.77405	-568.01367	492.56699	1301.05872	-573.64325	236.54761	1351.74158	-552.23853	68.04819	1399.61047	-587.38403	54.47117	1349.48730	-402.58487	42.09702	1591.79810	-633.70648	631.88666	1577.94519	-639.07892	504.18649	1560.52026	-809.12811	295.45535	1509.70032	-918.26080	145.10274	1462.92859	-960.29199	146.93439	1501.84436	-808.76001	34.58562	1403.21313	-662.70459	1700.60815																					 
53	0.520	1337.92603	-558.30273	1665.95227	1469.25720	-550.64459	1658.84814	1346.11023	-688.37970	1604.99207	1475.42053	-679.47876	1602.95996	1405.39697	-681.29041	1453.94556	1421.71143	-719.65375	1125.88281	1404.95862	-570.95746	1377.05896	1404.76819	-533.28381	1201.22778	1493.95679	-753.16199	1288.53601	1243.80066	-629.20459	1405.81226	1174.29602	-658.49323	1206.07214	1167.79736	-681.20770	1095.19788	1159.28064	-676.12866	942.88959	1221.42175	-645.44617	825.80182	1169.20422	-694.76581	825.52667	1184.52405	-667.60956	739.80548	1565.36499	-609.74445	1415.54932	1657.60339	-639.07343	1217.95337	1668.47791	-627.61664	1096.16345	1687.34119	-615.46753	976.64124	1656.20740	-566.80780	832.64117	1700.25171	-616.59009	838.85461	1701.29810	-584.51001	760.00043	1321.64880	-528.88501	970.21655	1540.91113	-545.59412	970.83630	1339.25806	-689.63190	992.64148	1507.46997	-696.82410	993.65649	1259.19666	-571.45135	656.22437	1284.77039	-564.64746	492.51553	1300.36011	-571.44678	236.54489	1351.49573	-551.97601	67.91692	1399.29956	-587.35388	54.49385	1349.72168	-402.43219	41.98484	1593.19128	-625.71185	632.27130	1580.86755	-629.09088	504.47180	1561.69470	-801.38605	298.63919	1509.87280	-912.49323	150.12054	1462.46289	-953.34387	153.51920	1501.91345	-808.09790	34.59597	1401.31348	-657.17944	1701.03650																					 
54	0.530	1336.25891	-552.68512	1666.17029	1467.60132	-545.27448	1659.18237	1344.29980	-682.87695	1605.26709	1473.53540	-674.19928	1603.37158	1403.67053	-675.80280	1454.05920	1420.03345	-713.66309	1126.10693	1403.63489	-565.27972	1377.45227	1403.59595	-527.33252	1201.58337	1492.16260	-747.49786	1288.77942	1242.39038	-623.09320	1406.15308	1172.24402	-650.92102	1206.36377	1165.29187	-672.87964	1095.33032	1157.02051	-666.40985	943.13403	1219.26379	-635.80048	826.28259	1166.40784	-684.53882	825.65271	1182.26636	-657.10315	739.93762	1563.81445	-604.67700	1416.10498	1656.16992	-634.19733	1218.66724	1667.23291	-623.00690	1096.81775	1686.22998	-611.16119	977.32172	1655.46497	-562.53937	833.17706	1699.27490	-612.46588	839.48987	1700.48291	-580.52307	760.51263	1320.87292	-522.59210	970.32251	1539.99365	-540.22888	971.35645	1337.79919	-683.21936	992.79248	1505.96362	-691.25397	993.85883	1258.05481	-566.61353	656.30096	1283.69043	-561.16040	492.36893	1299.29944	-569.90369	236.41811	1351.39734	-551.67987	67.75629	1399.10815	-587.31464	54.55762	1349.98547	-402.29239	41.93516	1594.70227	-617.53680	632.52112	1583.85596	-618.83075	504.66534	1562.84973	-792.96527	301.71783	1510.10864	-906.06366	155.15974	1462.12781	-945.64758	160.19698	1502.12195	-807.20618	34.61305	1399.41040	-651.61359	1701.36389																					 
55	0.540	1334.62134	-546.97089	1666.26599	1465.95886	-540.00098	1659.42737	1342.37793	-677.21783	1605.42969	1471.69690	-668.93848	1603.65344	1401.91614	-670.19867	1454.06738	1418.33972	-707.83978	1126.06384	1402.40942	-559.59753	1377.71045	1402.66956	-521.36414	1201.88342	1490.31128	-742.05939	1288.73682	1240.95496	-616.91852	1406.28088	1170.00476	-643.44513	1206.49109	1162.83716	-664.54840	1095.25720	1154.49902	-657.10132	943.12946	1215.45093	-624.53687	826.99573	1163.66650	-674.36176	825.48584	1180.23315	-646.34875	739.85797	1562.30420	-599.69720	1416.44116	1654.91418	-629.43970	1219.21130	1666.00891	-618.47644	1097.29724	1685.18591	-606.81586	977.81152	1654.80774	-558.17047	833.55414	1698.36340	-608.34277	839.94934	1699.74890	-576.53827	760.97369	1320.20288	-516.36945	970.20007	1539.02991	-535.04498	971.70404	1336.41980	-676.81122	992.85242	1504.41260	-685.91754	993.82855	1257.30542	-561.33575	656.34497	1282.66809	-557.61798	492.28415	1298.53699	-568.41193	236.26889	1351.59631	-550.58252	67.35400	1398.99414	-587.26318	54.60016	1350.15466	-402.14572	41.82070	1596.05493	-608.86670	632.56421	1586.78430	-608.26697	504.80862	1563.90381	-783.57031	304.55609	1510.53857	-898.97937	160.18217	1462.05127	-937.49188	166.98886	1501.55200	-806.46576	34.38654	1397.48352	-646.18805	1701.55981																					 
56	0.550	1333.00061	-541.41888	1666.24670	1464.39063	-534.74567	1659.56396	1340.53601	-671.71326	1605.42566	1469.85205	-663.68134	1603.80225	1400.19995	-664.51208	1453.95508	1416.67151	-702.08386	1125.98608	1401.20654	-553.94397	1377.82239	1401.66528	-515.51410	1201.96570	1488.33838	-736.51898	1288.53284	1239.56213	-610.94458	1406.28760	1167.92871	-636.12634	1206.41528	1160.36462	-656.42090	1095.06372	1151.76404	-647.67090	943.12921	1213.84888	-615.40308	826.78644	1160.88098	-663.89648	825.21381	1177.45667	-635.38611	739.81952	1560.89111	-594.76239	1416.68262	1653.55200	-624.75983	1219.50330	1664.72888	-614.05536	1097.60437	1684.21338	-602.49402	978.11212	1654.23108	-553.77783	833.80670	1697.60339	-604.14386	840.25153	1699.01355	-572.40790	761.18268	1319.55090	-510.25412	969.95190	1538.22876	-530.14508	971.83569	1334.99048	-670.78186	992.97650	1502.93958	-680.81067	993.66095	1255.99524	-556.49030	656.25446	1281.69934	-554.19952	492.21243	1298.07849	-566.70831	236.12210	1351.35596	-550.58606	67.44744	1398.91541	-587.16840	54.61792	1350.29834	-402.11200	41.64925	1597.43945	-600.05542	632.40369	1589.50012	-597.52094	504.93088	1565.35425	-774.02136	307.44244	1511.32715	-891.58466	165.44850	1462.33167	-929.19208	174.08925	1501.53723	-805.15350	35.02631	1395.59900	-640.77716	1701.61902																					 
57	0.560	1331.41284	-535.91138	1666.18237	1462.81433	-529.55743	1659.66931	1338.71228	-666.21436	1605.28882	1468.06836	-658.48438	1603.87610	1398.52625	-658.96637	1453.83203	1415.01782	-696.46497	1125.81323	1399.87463	-548.37555	1377.81189	1400.70825	-509.83447	1201.96655	1486.33057	-731.24475	1288.22144	1238.13257	-604.94989	1406.10425	1165.88318	-628.81812	1206.17749	1157.94275	-648.04266	1094.60229	1149.31970	-637.62396	942.73492	1212.05481	-605.85657	826.48474	1158.02844	-653.34039	824.79169	1174.59680	-624.19885	739.74255	1559.53430	-589.84851	1416.66626	1652.11353	-620.44971	1219.54565	1663.67212	-609.54181	1097.73865	1683.10596	-598.42371	978.26935	1653.71411	-549.27551	833.92853	1696.80090	-600.00623	840.40259	1698.36084	-568.18744	761.26801	1318.89758	-504.28510	969.65552	1537.60339	-525.30310	971.95416	1333.67578	-664.88275	992.94781	1501.31165	-675.34210	993.09045	1255.88391	-551.28528	656.34552	1280.89343	-550.94421	492.15350	1297.22913	-565.46252	236.04575	1351.33594	-550.35498	67.40216	1398.82373	-587.13342	54.68615	1350.42920	-402.04285	41.56738	1599.01831	-591.74969	632.38104	1591.85754	-586.89386	505.06836	1566.78076	-763.78870	310.00534	1512.10681	-884.06458	170.83894	1463.16565	-920.99878	181.27797	1501.56982	-802.81134	36.85851	1393.73022	-635.44708	1701.58337																					 
58	0.570	1329.81409	-530.39148	1666.10107	1461.29602	-524.35583	1659.77417	1336.89294	-660.65674	1605.05737	1466.30371	-653.22382	1603.81189	1397.15173	-654.06250	1453.94397	1413.38464	-690.87286	1125.55237	1398.68713	-542.94055	1377.68774	1399.83179	-504.27222	1201.81140	1484.27905	-726.03223	1287.96313	1236.74353	-599.13934	1405.82361	1163.86829	-621.55365	1205.76404	1155.57446	-639.85095	1094.10217	1146.84619	-628.34460	942.34058	1209.62183	-595.65131	826.20129	1155.34143	-642.81586	824.22815	1171.84399	-612.77905	739.45844	1558.23242	-585.01843	1416.58923	1650.78186	-616.22089	1219.48645	1662.56006	-605.28485	1097.65613	1682.19312	-594.17987	978.24512	1653.26221	-544.84082	833.87823	1695.97986	-595.91486	840.45477	1697.88831	-564.46808	761.38043	1318.30078	-498.44528	969.32208	1537.13989	-520.63721	971.76178	1332.34729	-659.42004	992.95380	1500.04028	-670.58179	992.61267	1255.77991	-546.52448	656.38452	1280.18054	-547.81390	492.15356	1296.93884	-563.86725	236.09067	1351.28418	-550.12256	67.36655	1398.77954	-587.11859	54.75032	1350.49451	-402.00797	41.50298	1600.32764	-583.54901	632.37579	1593.94897	-576.08862	505.07419	1568.17114	-753.24603	312.42331	1512.51062	-876.30200	176.31812	1463.69153	-912.77808	187.92088	1502.34534	-798.96106	39.91601	1391.83972	-630.12616	1701.46973																					 
